<?xml version="1.0" standalone="no"?>
<!DOCTYPE svg PUBLIC "-//W3C//DTD SVG 20010904//EN"
 "http://www.w3.org/TR/2001/REC-SVG-20010904/DTD/svg10.dtd">
<svg version="1.0" xmlns="http://www.w3.org/2000/svg"
 width="180.000000pt" height="180.000000pt" viewBox="0 0 180.000000 180.000000"
 preserveAspectRatio="xMidYMid meet">
<metadata>
Created by potrace 1.14, written by Peter Selinger 2001-2017
</metadata>
<g transform="translate(0.000000,180.000000) scale(0.100000,-0.100000)"
fill="#000000" stroke="none">
<path d="M868 1740 l-26 -27 24 -27 c31 -33 35 -32 61 2 l20 27 -26 26 -26 26
-27 -27z m52 -21 c12 -9 12 -10 -4 -5 -13 4 -17 2 -13 -7 11 -29 -8 -34 -28
-8 -15 20 -15 23 -2 12 15 -12 17 -11 17 3 0 19 9 20 30 5z"/>
<path d="M861 1552 c-18 -23 -41 -51 -52 -63 -22 -26 -63 -111 -73 -152 -6
-24 -3 -30 14 -34 11 -3 20 -10 20 -17 0 -6 5 -4 10 4 6 9 10 10 10 3 0 -6 7
-19 16 -28 13 -12 19 -13 24 -4 5 8 10 5 15 -10 9 -28 28 -27 20 2 -5 19 -5
20 5 4 12 -18 -8 -52 -63 -112 -10 -11 -27 -35 -38 -52 -12 -18 -25 -33 -30
-33 -11 0 33 64 81 119 27 31 29 36 15 51 -8 9 -48 34 -87 56 -40 21 -91 57
-115 79 -24 24 -44 36 -47 30 -7 -18 -19 -125 -20 -175 -3 -117 36 -224 105
-290 23 -22 37 -40 31 -40 -7 0 -12 5 -12 10 0 6 -9 10 -20 10 -11 0 -20 6
-20 13 0 7 -8 22 -18 33 -40 43 -72 131 -76 206 -1 24 -6 29 -36 35 -64 13
-95 6 -197 -42 -60 -29 -113 -32 -148 -9 l-24 16 12 -31 c6 -17 38 -54 71 -83
33 -29 101 -92 152 -139 113 -107 182 -137 329 -142 28 -1 95 13 95 20 0 11
-55 48 -70 46 -8 -1 -10 0 -3 3 22 10 1 34 -31 35 -28 0 -29 1 -8 9 12 5 22
17 22 27 1 11 6 7 14 -13 14 -31 66 -94 66 -79 0 4 10 0 22 -11 20 -18 21 -18
15 -1 -4 11 -3 16 3 12 6 -3 10 -12 10 -19 0 -20 52 -13 62 9 8 18 8 18 4 -2
-6 -32 8 -29 22 5 8 19 10 20 6 4 l-5 -22 33 18 c28 16 87 86 86 102 -3 35 4
70 12 65 6 -4 8 -9 6 -13 -2 -4 -7 -24 -10 -46 l-6 -39 37 29 c21 16 48 40 60
54 12 14 23 19 23 13 0 -7 -4 -13 -8 -13 -5 0 -14 -11 -22 -24 -7 -14 -26 -30
-42 -37 -21 -9 -26 -14 -16 -20 9 -6 4 -9 -14 -9 -36 0 -45 -18 -16 -30 22
-10 22 -10 -3 -5 -17 3 -36 -3 -58 -19 l-33 -24 23 -13 c33 -17 145 -15 214 5
81 23 140 59 200 120 28 28 73 69 100 90 79 63 116 99 132 130 14 27 14 28 -3
21 -47 -21 -103 -17 -161 10 -81 38 -110 45 -175 46 l-56 1 -8 61 c-4 34 -9
65 -10 70 -1 4 -2 23 -3 43 l-1 35 -42 -34 c-24 -18 -76 -53 -115 -78 -40 -24
-73 -47 -73 -51 0 -5 -6 -8 -13 -8 -7 0 -18 -9 -25 -20 -11 -19 -7 -27 42 -85
51 -60 86 -129 72 -142 -3 -4 -6 0 -6 8 0 24 -40 91 -86 145 -24 28 -44 54
-44 58 0 4 -7 14 -15 22 -8 9 -15 21 -15 27 0 8 3 7 9 -2 7 -11 9 -11 14 0 3
8 6 3 7 -11 0 -22 2 -23 13 -9 7 8 20 18 30 22 11 4 21 16 24 28 4 13 8 16 13
9 5 -7 14 -5 30 8 23 18 23 22 11 63 -18 61 -54 120 -109 180 l-48 51 -33 -40z
m39 -276 c0 -3 -4 -8 -10 -11 -5 -3 -10 -1 -10 4 0 6 5 11 10 11 6 0 10 -2 10
-4z m320 -236 c-13 -28 -26 -50 -30 -50 -4 0 5 24 19 53 14 30 28 52 30 50 3
-1 -6 -26 -19 -53z m-486 -2 c-4 -6 -11 -25 -15 -42 -7 -30 -7 -30 -8 -4 -1
32 8 58 21 58 5 0 6 -5 2 -12z m-17 -100 c-3 -8 -6 -5 -6 6 -1 11 2 17 5 13 3
-3 4 -12 1 -19z m150 -130 c-3 -8 -6 -5 -6 6 -1 11 2 17 5 13 3 -3 4 -12 1
-19z"/>
<path d="M1345 802 c-3 -3 -16 -7 -28 -9 -26 -4 -85 -33 -186 -93 -64 -38 -81
-44 -130 -44 -133 1 -195 18 -78 22 77 2 152 19 168 38 9 12 6 14 -22 15 -19
0 -43 2 -54 5 -72 16 -185 15 -241 -1 -71 -20 -190 -82 -243 -127 -34 -29 -38
-35 -29 -58 13 -35 45 -67 96 -97 45 -27 41 -27 277 -7 28 2 82 -3 120 -11
100 -22 123 -15 207 66 24 23 53 45 66 50 28 11 29 29 1 29 -11 0 -17 -4 -14
-10 3 -6 -1 -7 -10 -4 -10 4 -31 -6 -56 -25 -51 -42 -103 -63 -134 -55 -27 7
-34 24 -11 24 25 0 120 54 149 83 37 39 34 45 -7 13 -19 -14 -38 -26 -42 -26
-4 0 26 25 66 55 83 62 105 84 105 104 0 8 9 19 20 25 56 31 58 33 36 39 -11
2 -22 2 -26 -1z m-50 -70 c-14 -13 -131 -77 -123 -67 12 12 112 73 123 74 6 1
6 -2 0 -7z m-445 -61 c0 -5 -9 -7 -20 -4 -11 3 -20 7 -20 9 0 2 9 4 20 4 11 0
20 -4 20 -9z"/>
<path d="M466 545 c-15 -15 -14 -19 6 -44 26 -32 100 -82 135 -93 37 -10 37 9
-1 27 -44 21 -91 64 -109 98 -14 26 -16 27 -31 12z"/>
<path d="M420 490 c-9 -17 -8 -20 10 -20 11 0 20 6 21 13 0 6 4 1 10 -11 5
-13 6 -29 3 -34 -4 -6 -1 -8 7 -6 8 3 13 11 11 17 -1 8 3 10 10 5 7 -4 0 7
-16 24 -35 37 -42 39 -56 12z"/>
<path d="M400 450 c0 -23 124 -99 163 -100 9 0 17 -4 17 -9 0 -16 -24 -18 -40
-3 -13 13 -16 12 -25 -11 l-11 -26 -49 24 c-27 14 -59 35 -72 47 -18 16 -24
18 -27 7 -3 -8 -10 -27 -16 -44 -6 -16 -13 -73 -15 -125 -2 -52 -2 -88 0 -80
8 35 29 196 26 209 -2 10 7 8 31 -7 75 -47 180 -83 195 -69 12 13 -8 37 -32
37 -14 0 -25 4 -25 8 0 4 15 6 34 4 29 -3 34 -1 38 22 5 23 1 27 -35 37 -22 6
-57 21 -78 34 -41 26 -64 53 -36 42 10 -3 17 -2 17 3 0 5 -13 8 -30 7 -16 -1
-30 -4 -30 -7z"/>
<path d="M500 440 c-7 -4 -10 -15 -7 -25 4 -9 11 -14 16 -11 5 4 11 2 13 -4 2
-6 9 -6 18 0 13 8 12 12 -6 29 -13 11 -26 16 -34 11z"/>
<path d="M377 426 c-10 -25 -9 -26 16 -27 17 0 18 -2 5 -7 -14 -6 -12 -10 10
-26 22 -17 25 -17 19 -3 -3 9 -2 17 3 17 6 0 10 -10 11 -22 0 -22 1 -22 9 -3
8 19 9 19 9 -1 1 -13 9 -24 20 -27 23 -6 31 0 30 22 0 12 -3 11 -9 -4 -5 -11
-9 -14 -9 -7 -1 14 -61 71 -75 72 -5 0 -14 7 -21 16 -11 16 -12 15 -18 0z"/>
<path d="M552 395 c-11 -13 -10 -15 5 -12 10 1 19 7 21 12 6 16 -12 15 -26 0z"/>
<path d="M595 389 c-10 -15 3 -25 16 -12 7 7 7 13 1 17 -6 3 -14 1 -17 -5z"/>
<path d="M443 253 c13 -71 62 -143 89 -127 7 4 10 4 6 0 -7 -9 56 -82 84 -97
33 -18 -22 82 -72 131 -26 25 -50 59 -54 75 -13 50 -61 66 -53 18z"/>
<path d="M506 253 c-9 -9 32 -76 59 -96 l24 -17 -5 52 c-3 29 -7 53 -7 54 -9
6 -66 12 -71 7z"/>
</g>
</svg>
