<svg id="svg11182" height="480" viewBox="0 0 480 480.00001" width="480" xmlns="http://www.w3.org/2000/svg" xmlns:cc="http://creativecommons.org/ns#" xmlns:dc="http://purl.org/dc/elements/1.1/" xmlns:inkscape="http://www.inkscape.org/namespaces/inkscape" xmlns:rdf="http://www.w3.org/1999/02/22-rdf-syntax-ns#" xmlns:sodipodi="http://sodipodi.sourceforge.net/DTD/sodipodi-0.dtd" xmlns:svg="http://www.w3.org/2000/svg"><clipPath id="clipPath29920-8-2-1"><ellipse id="path29922-3-3-5" cx="-514.286" cy="506.648" rx="260" ry="248.571" transform="matrix(.685 0 0 .716 705.099 116.389)"/></clipPath><g id="layer1" transform="translate(0 -572.362)"><g id="g11085" fill-rule="evenodd" transform="translate(-8952.388 7199.093)"><path id="path9092" d="m9008.3881-6626.7307c-30.8856 0-56 25.1144-56 56v368c0 30.8856 25.1144 56 56 56h368c30.8856 0 56-25.1144 56-56 0-122.6667 0-245.3333 0-368 0-30.8856-25.1144-56-56-56z" fill="#3b3c3d" text-indent="0" text-align="start" text-decoration-line="none" text-decoration-style="solid" text-decoration-color="#000000" text-transform="none" white-space="normal" isolation="auto" mix-blend-mode="normal" solid-color="#000000" solid-opacity="1"/><path id="path9090" d="m9008.3881-6610.7307h368c19.5531 0 35.5688 13.6117 39.2168 31.998h-446.4336c3.648-18.3863 19.6638-31.998 39.2168-31.998z" fill="#fcd116" text-indent="0" text-align="start" text-decoration-line="none" text-decoration-style="solid" text-decoration-color="#000000" text-transform="none" white-space="normal" isolation="auto" mix-blend-mode="normal" solid-color="#000000" solid-opacity="1"/><path id="path9088" d="m8968.3881-6562.7327h448v36.5723h-448z" fill="#ea6153" text-indent="0" text-align="start" text-decoration-line="none" text-decoration-style="solid" text-decoration-color="#000000" text-transform="none" white-space="normal" isolation="auto" mix-blend-mode="normal" solid-color="#000000" solid-opacity="1"/><path id="path9086" d="m8968.3881-6510.1604h448v36.5703h-448z" fill="#fcd116" text-indent="0" text-align="start" text-decoration-line="none" text-decoration-style="solid" text-decoration-color="#000000" text-transform="none" white-space="normal" isolation="auto" mix-blend-mode="normal" solid-color="#000000" solid-opacity="1"/><path id="path9084" d="m8968.3881-6457.5901h448v36.5722h-448z" fill="#ea6153" text-indent="0" text-align="start" text-decoration-line="none" text-decoration-style="solid" text-decoration-color="#000000" text-transform="none" white-space="normal" isolation="auto" mix-blend-mode="normal" solid-color="#000000" solid-opacity="1"/><path id="path9082" d="m8968.3881-6405.0179h448v36.5704h-448z" fill="#fcd116" text-indent="0" text-align="start" text-decoration-line="none" text-decoration-style="solid" text-decoration-color="#000000" text-transform="none" white-space="normal" isolation="auto" mix-blend-mode="normal" solid-color="#000000" solid-opacity="1"/><path id="path9080" d="m8968.3881-6352.4475h448v36.5722h-448z" fill="#ea6153" text-indent="0" text-align="start" text-decoration-line="none" text-decoration-style="solid" text-decoration-color="#000000" text-transform="none" white-space="normal" isolation="auto" mix-blend-mode="normal" solid-color="#000000" solid-opacity="1"/><path id="path9078" d="m8968.3881-6299.8753h448v36.5723h-448z" fill="#fcd116" text-indent="0" text-align="start" text-decoration-line="none" text-decoration-style="solid" text-decoration-color="#000000" text-transform="none" white-space="normal" isolation="auto" mix-blend-mode="normal" solid-color="#000000" solid-opacity="1"/><path id="path9076" d="m8968.3881-6247.303h448v36.5703h-448z" fill="#ea6153" text-indent="0" text-align="start" text-decoration-line="none" text-decoration-style="solid" text-decoration-color="#000000" text-transform="none" white-space="normal" isolation="auto" mix-blend-mode="normal" solid-color="#000000" solid-opacity="1"/><path id="path9062" d="m8969.1713-6194.7327h446.4336c-3.6472 18.3873-19.6631 32.002-39.2168 32.002h-368c-19.5537 0-35.5695-13.6147-39.2168-32.002z" fill="#fcd116" text-indent="0" text-align="start" text-decoration-line="none" text-decoration-style="solid" text-decoration-color="#000000" text-transform="none" white-space="normal" isolation="auto" mix-blend-mode="normal" solid-color="#000000" solid-opacity="1"/></g></g></svg>