<?xml version="1.0" encoding="UTF-8"?><svg id="b" xmlns="http://www.w3.org/2000/svg" width="475.24" height="476.198" xmlns:xlink="http://www.w3.org/1999/xlink" viewBox="0 0 475.24 476.198"><defs><style>.h,.i{fill:#fff;}.j{clip-path:url(#e);}.j,.k,.l{fill:none;}.m{fill:#f5f5f5;}.n{fill:#160204;opacity:.13;}.n,.i{isolation:isolate;}.o{fill:#d4483f;}.p{fill:#e0e0e0;}.q{fill:#d90028;}.r{fill:#b73831;}.s{fill:#0153b5;}.k{clip-path:url(#f);}.i{opacity:.22;}.t{fill:#efefef;}.u{fill:#2b66ba;}.v{fill:#3477cc;}</style><clipPath id="e"><path class="l" d="m240.0113,0l84.6492,1.5567s139.4634,8.7206,150.5375,160.0666v150.4577s5.6514,148.8209-164.072,164.072h-147.01S3.5983,467.8606.044,312.081v-147.009S.044,1,164.116,1l75.8953-1Z"/></clipPath><clipPath id="f"><polygon class="l" points=".044 476.153 475.2185 .9785 0 .9785 .044 476.153"/></clipPath></defs><g id="c"><g id="d"><path class="t" d="m311.2.959h-147.142C73.598.959.002,74.546.002,164.997v147.159C.002,402.607,73.598,476.195,164.058,476.195h147.142c90.452,0,164.039-73.588,164.039-164.039v-147.159C475.239,74.546,401.652.959,311.2.959h0Z"/><path class="q" d="m475.24,195.918v85.32h-194.96v194.96h-85.32v-194.96H0v-85.32h194.96V.9579h85.32v194.96h194.96Z"/><path class="q" d="m437.2601,417.008c-6.41,7.7-13.51,14.801-21.21,21.21l-110.27-110.27v-21.21h21.21l110.27,110.27Z"/><path class="q" d="m437.27,60.148l-110.28,110.27h-21.21v-21.21l110.27-110.28c7.7,6.42,14.8,13.52,21.22,21.22Z"/><path class="q" d="m169.46,306.738v21.21l-110.26,110.27c-7.7-6.409-14.81-13.52-21.22-21.21l110.27-110.27h21.21Z"/><path class="s" d="m22.656,81.913C8.271,106.296.003,134.697.003,164.997v5.425h112.262L22.656,81.913Z"/><path class="s" d="m.003,306.734v5.422c0,30.28,8.258,58.664,22.625,83.036l89.613-88.458H.003Z"/><path class="s" d="m452.555,395.298c14.404-24.396,22.685-52.817,22.685-83.142v-5.422h-112.29l89.605,88.564Z"/><path class="s" d="m475.239,170.422v-5.425c0-30.28-8.257-58.665-22.623-83.037l-89.617,88.462h112.24Z"/><path class="s" d="m305.776,113.198l88.463-89.615C369.8661,9.216,341.4811.959,311.2001.959h-5.423l-.001,112.239Z"/><path class="s" d="m169.464,363.958l-88.458,89.61c24.377,14.368,52.767,22.627,83.053,22.627h5.405v-112.237Z"/><path class="s" d="m305.7771,363.907v112.288h5.424c30.323,0,58.744-8.28,83.14-22.684l-88.564-89.604Z"/><path class="s" d="m169.463,113.223V.959h-5.405c-30.307,0-58.715,8.27-83.103,22.656l88.508,89.608Z"/><path class="i" d="m.044,312.081v-147.009C.044,74.504,73.549,1,164.116,1h56.946C176.451,9.96,55.975,44.596,37.725,155.443l-.842,180.796s4.39,73.679,37.004,112.877C29.449,419.7189.044,369.3649.044,312.0809h0Z"/><path class="n" d="m475.198,165.072v147.009c0,90.567-73.505,164.072-164.072,164.072h-147.01c-19.266,0-37.681-3.383-54.917-9.464l148.19-12.672c153.09-21.122,159.006-124.535,159.006-124.535l-.677-179.617s-3.209-105.607-130.45-148.865h25.857c90.568,0,164.073,73.504,164.073,164.072h0Z"/></g><g class="j"><g class="k"><g id="g"><rect class="p" x="-.3785" y="1" width="681.6" height="477.12" rx="56.8" ry="56.8"/><path class="r" d="m340.4215,137.32h340.8v68.16h-340.8v-68.16Z"/><path class="o" d="m408.5829,171.4h272.64v-34.08h-306.72c0,18.8219,15.2582,34.08,34.08,34.08Z"/><path class="m" d="m408.5829,103.24h272.64v-34.08h-306.72c0,18.8219,15.2582,34.08,34.08,34.08Z"/><path class="m" d="m408.5829,239.56h272.64v-34.08h-306.72c0,18.8219,15.2582,34.08,34.08,34.08Z"/><path class="r" d="m-.3785,273.64h681.6v68.16H-.3785v-68.16Z"/><path class="r" d="m-.3771,421.32c0,31.3698,25.4302,56.8,56.8,56.8h568c31.3698,0,56.8-25.4302,56.8-56.8v-11.36H-.3771v11.36Z"/><path class="r" d="m624.4229,1h-284v68.16h340.8v-11.36c0-31.3698-25.4302-56.8-56.8-56.8Z"/><path class="u" d="m311.7244,273.599V.959H27.7244C-3.6454.959-29.0756,26.3892-29.0756,57.759v215.84h340.8Z"/><path class="v" d="m33.7029,5.7953v188.3247c0,25.0958,20.3442,45.44,45.44,45.44h261.28V1H56.4229c-7.8237.0078-15.5605,1.6408-22.72,4.7953Z"/><path class="p" d="m67.7389,46.44l10.5435,22.4374,23.5791,3.5969-17.0613,17.4646,4.0271,24.6611-21.0884-11.6426-21.0898,11.6426,4.0285-24.6611-17.0613-17.4646,23.5777-3.5969,10.5449-22.4374Z"/><path class="h" d="m78.2824,68.876l-10.5009-22.3465v56.4507l21.0458,11.6199-4.0271-24.6611,17.0613-17.4646-23.5791-3.5983Z"/><path class="p" d="m169.9789,46.44l10.5435,22.4374,23.5791,3.5969-17.0613,17.4646,4.0271,24.6611-21.0884-11.6426-21.0898,11.6426,4.0285-24.6611-17.0613-17.4646,23.5777-3.5969,10.5449-22.4374Z"/><path class="h" d="m180.5224,68.876l-10.5009-22.3465v56.4507l21.0458,11.6199-4.0271-24.6611,17.0613-17.4646-23.5791-3.5983Z"/><path class="p" d="m272.2189,46.44l10.5435,22.4374,23.5791,3.5969-17.0613,17.4646,4.0271,24.6611-21.0884-11.6426-21.0898,11.6426,4.0285-24.6611-17.0613-17.4646,23.5777-3.5969,10.5449-22.4374Z"/><path class="h" d="m282.7624,68.876l-10.5009-22.3465v56.4507l21.0458,11.6199-4.0271-24.6611,17.0613-17.4646-23.5791-3.5983Z"/><path class="p" d="m67.7389,160.04l10.5435,22.4374,23.5791,3.5969-17.0613,17.4646,4.0271,24.6611-21.0884-11.6426-21.0898,11.6426,4.0285-24.6611-17.0613-17.4646,23.5777-3.5969,10.5449-22.4374Z"/><path class="h" d="m78.2824,182.476l-10.5009-22.3465v56.4507l21.0458,11.6199-4.0271-24.6611,17.0613-17.4646-23.5791-3.5983Z"/><path class="p" d="m169.9789,160.04l10.5435,22.4374,23.5791,3.5969-17.0613,17.4646,4.0271,24.6611-21.0884-11.6426-21.0898,11.6426,4.0285-24.6611-17.0613-17.4646,23.5777-3.5969,10.5449-22.4374Z"/><path class="h" d="m180.5224,182.476l-10.5009-22.3465v56.4507l21.0458,11.6199-4.0271-24.6611,17.0613-17.4646-23.5791-3.5983Z"/><path class="p" d="m272.2189,160.04l10.5435,22.4374,23.5791,3.5969-17.0613,17.4646,4.0271,24.6611-21.0884-11.6426-21.0898,11.6426,4.0285-24.6611-17.0613-17.4646,23.5777-3.5969,10.5449-22.4374Z"/><path class="h" d="m282.7624,182.476l-10.5009-22.3465v56.4507l21.0458,11.6199-4.0271-24.6611,17.0613-17.4646-23.5791-3.5983Z"/><path class="o" d="m408.5829,35.08h267.8433c-9.0191-20.6876-29.4364-34.0676-52.0046-34.08h-249.92c0,18.8219,15.2582,34.08,34.08,34.08h.0014,0Z"/><path class="o" d="m70.0066,307.5411h611.2163v-33.9011H33.7029c0,18.8221,15.2565,34.08,36.3037,33.9011Z"/><path class="o" d="m33.7029,409.96c0,18.8221,15.2579,34.08,36.3066,33.9011h606.5132c3.097-7.1115,4.6969-14.7845,4.7002-22.5411v-11.36H33.7029Z"/><path class="m" d="m70.0066,375.7011h611.2163v-33.9011H33.7029c0,18.8221,15.2565,34.08,36.3037,33.9011Z"/></g></g></g></g></svg>