<svg width="362" height="488" viewBox="0 0 362 488" fill="none" xmlns="http://www.w3.org/2000/svg">
<g opacity="0.5">
<path d="M170.001 386.213C168.931 385.643 167.911 384.953 166.871 384.353C165.851 383.713 164.801 383.173 163.821 382.503C161.851 381.193 159.871 380.013 158.031 378.653C154.271 376.123 150.871 373.373 147.691 370.703C146.921 370.003 146.151 369.323 145.381 368.673C144.611 368.023 143.931 367.273 143.201 366.603C141.721 365.293 140.481 363.803 139.141 362.503C136.661 359.683 134.381 356.953 132.421 354.193C131.911 353.513 131.501 352.773 131.021 352.103L130.311 351.093L129.691 350.033C129.291 349.323 128.821 348.683 128.431 347.983C128.061 347.273 127.681 346.573 127.281 345.903C127.071 345.573 126.901 345.223 126.731 344.863L126.211 343.813L125.671 342.793C125.491 342.453 125.361 342.073 125.201 341.723C124.891 341.003 124.551 340.323 124.231 339.633C123.961 338.893 123.671 338.173 123.361 337.473C122.261 334.553 121.131 331.683 120.301 328.483L119.931 327.323L119.641 326.093C119.441 325.273 119.221 324.473 118.991 323.663C118.831 322.803 118.651 321.953 118.461 321.103C118.371 320.673 118.251 320.263 118.161 319.833L117.941 318.493C117.791 317.593 117.601 316.723 117.431 315.823C117.321 314.883 117.191 313.953 117.041 313.023L116.811 311.623L116.671 310.153C116.571 309.173 116.451 308.203 116.321 307.223L116.101 304.233C116.031 303.223 115.881 302.253 115.881 301.193C115.851 300.153 115.801 299.113 115.741 298.063C115.691 297.013 115.731 295.943 115.701 294.883C115.601 292.743 115.761 290.653 115.731 288.523C115.891 286.423 115.871 284.293 116.111 282.183C116.221 281.123 116.221 280.053 116.371 279.003C116.501 277.943 116.611 276.883 116.711 275.813C116.821 274.743 117.021 273.683 117.161 272.613L117.371 271.003L117.661 269.393C118.331 265.083 119.341 260.733 120.501 256.303C121.631 251.863 123.121 247.383 124.761 242.813C128.081 233.683 132.451 224.293 137.741 214.793C148.311 195.783 162.721 176.533 179.181 158.033C195.651 139.483 214.241 121.683 233.691 104.793C253.181 87.9226 273.581 71.9826 294.201 57.0426C314.821 42.0926 335.691 28.1626 356.221 15.0226C366.281 8.57263 360.101 -3.61736 349.011 1.03264C302.431 20.3426 254.461 38.2226 207.051 60.7626C195.201 66.4026 183.381 72.3326 171.631 78.6426C159.901 84.9826 148.231 91.7127 136.711 98.9927C113.731 113.613 91.161 130.313 70.481 151.003C60.131 161.293 50.351 172.683 41.391 185.153C36.961 191.433 32.711 197.953 28.791 204.793C24.921 211.663 21.201 218.723 18.021 226.153L16.801 228.923L15.661 231.743C14.911 233.633 14.141 235.503 13.431 237.413C12.071 241.253 10.6511 245.093 9.50105 249.043C8.24105 252.953 7.21105 256.943 6.18105 260.953C5.65105 262.953 5.26104 264.983 4.80104 267.003C4.37104 269.033 3.901 271.053 3.571 273.103L2.511 279.243C2.191 281.293 1.95104 283.353 1.67104 285.413C1.08104 289.543 0.821005 293.663 0.451005 297.813C-0.0489955 306.113 -0.198981 314.623 0.341019 323.213C0.471019 325.363 0.591012 327.503 0.771012 329.663L1.511 336.183L1.90102 339.443C2.06102 340.533 2.25105 341.633 2.43105 342.733L3.571 349.313C5.431 358.113 7.67102 366.983 10.971 375.733L12.171 379.023C12.581 380.113 13.061 381.193 13.511 382.283L16.301 388.783C17.341 390.923 18.391 393.053 19.461 395.173C20.011 396.233 20.521 397.303 21.101 398.353L22.881 401.473C27.561 409.843 33.151 417.793 39.301 425.273C40.861 427.123 42.421 428.983 44.031 430.793C45.681 432.553 47.351 434.313 49.031 436.053C50.691 437.833 52.471 439.443 54.231 441.093C56.001 442.723 57.751 444.413 59.611 445.923C61.451 447.463 63.301 448.993 65.161 450.513C67.051 451.973 68.971 453.383 70.891 454.803C71.861 455.503 72.811 456.233 73.791 456.893L76.7511 458.853C78.7311 460.133 80.701 461.493 82.721 462.673C90.771 467.583 99.091 471.693 107.521 475.313L113.871 477.803C114.931 478.203 115.991 478.633 117.061 479.003L120.251 480.083C122.381 480.783 124.521 481.523 126.661 482.163L133.081 483.973C145.571 487.293 156.901 487.743 166.521 486.463C168.921 486.113 171.231 485.683 173.441 485.173C175.641 484.643 177.721 483.953 179.711 483.243C183.701 481.853 187.221 479.993 190.341 477.983C202.841 469.783 208.361 457.883 208.831 446.063C209.311 434.173 204.881 422.063 197.831 411.763C196.061 409.143 194.131 406.643 192.051 404.303C189.981 401.873 187.761 399.603 185.411 397.493C180.771 393.123 175.581 389.443 170.001 386.213Z" fill="#CED6D2"/>
</g>
</svg>
